<svg xmlns="http://www.w3.org/2000/svg" xmlns:xlink="http://www.w3.org/1999/xlink" width="700pt" height="700pt" version="1.1" viewBox="0 0 700 700">
 <defs fill="#ffffff">
  <symbol id="b" overflow="visible" fill="#ffffff">
   <path d="m39.078-2.3281c-2.0117 1.043-4.1094 1.8281-6.2969 2.3594s-4.4648 0.79688-6.8281 0.79688c-7.0859 0-12.699-1.9766-16.844-5.9375-4.1367-3.957-6.2031-9.3281-6.2031-16.109 0-6.7891 2.0664-12.164 6.2031-16.125 4.1445-3.9688 9.7578-5.9531 16.844-5.9531 2.3633 0 4.6406 0.26562 6.8281 0.79688s4.2852 1.3242 6.2969 2.375v8.7969c-2.0312-1.3828-4.0391-2.3984-6.0156-3.0469-1.9688-0.64453-4.0469-0.96875-6.2344-0.96875-3.9062 0-6.9844 1.2578-9.2344 3.7656-2.2422 2.5-3.3594 5.9531-3.3594 10.359 0 4.3867 1.1172 7.8359 3.3594 10.344 2.25 2.5 5.3281 3.75 9.2344 3.75 2.1875 0 4.2656-0.32031 6.2344-0.96875 1.9766-0.64453 3.9844-1.6602 6.0156-3.0469z" fill="#ffffff"/>
  </symbol>
  <symbol id="e" overflow="visible" fill="#ffffff">
   <path d="m16.031-40.953v9.0625h10.516v7.2812h-10.516v13.531c0 1.4805 0.28906 2.4805 0.875 3 0.59375 0.52344 1.7656 0.78125 3.5156 0.78125h5.2344v7.2969h-8.7344c-4.0312 0-6.8867-0.83594-8.5625-2.5156-1.6797-1.6875-2.5156-4.5391-2.5156-8.5625v-13.531h-5.0781v-7.2812h5.0781v-9.0625z" fill="#ffffff"/>
  </symbol>
  <symbol id="a" overflow="visible" fill="#ffffff">
   <path d="m26.594-27.234v-17.078h10.266v44.312h-10.266v-4.6094c-1.3984 1.875-2.9453 3.25-4.6406 4.125-1.6875 0.875-3.6406 1.3125-5.8594 1.3125-3.9297 0-7.1562-1.5625-9.6875-4.6875-2.5234-3.125-3.7812-7.1445-3.7812-12.062 0-4.9141 1.2578-8.9375 3.7812-12.062 2.5312-3.125 5.7578-4.6875 9.6875-4.6875 2.1953 0 4.1445 0.44531 5.8438 1.3281 1.707 0.88672 3.2578 2.2578 4.6562 4.1094zm-6.7188 20.656c2.1875 0 3.8516-0.79688 5-2.3906 1.1445-1.5938 1.7188-3.9102 1.7188-6.9531 0-3.0391-0.57422-5.3594-1.7188-6.9531-1.1484-1.5938-2.8125-2.3906-5-2.3906-2.168 0-3.8242 0.79688-4.9688 2.3906-1.1484 1.5938-1.7188 3.9141-1.7188 6.9531 0 3.043 0.57031 5.3594 1.7188 6.9531 1.1445 1.5938 2.8008 2.3906 4.9688 2.3906z" fill="#ffffff"/>
  </symbol>
  <symbol id="d" overflow="visible" fill="#ffffff">
   <path d="m21.875-6.5781c2.1758 0 3.8359-0.79688 4.9844-2.3906 1.1562-1.5938 1.7344-3.9102 1.7344-6.9531 0-3.0391-0.57812-5.3594-1.7344-6.9531-1.1484-1.5938-2.8086-2.3906-4.9844-2.3906-2.1875 0-3.8672 0.80469-5.0312 2.4062-1.168 1.6055-1.75 3.918-1.75 6.9375 0 3.0234 0.58203 5.3359 1.75 6.9375 1.1641 1.6055 2.8438 2.4062 5.0312 2.4062zm-6.7812-20.656c1.4062-1.8516 2.9609-3.2227 4.6719-4.1094 1.707-0.88281 3.6719-1.3281 5.8906-1.3281 3.9375 0 7.1641 1.5625 9.6875 4.6875 2.5195 3.125 3.7812 7.1484 3.7812 12.062 0 4.918-1.2617 8.9375-3.7812 12.062-2.5234 3.125-5.75 4.6875-9.6875 4.6875-2.2188 0-4.1836-0.44531-5.8906-1.3281-1.7109-0.88281-3.2656-2.2539-4.6719-4.1094v4.6094h-10.188v-44.312h10.188z" fill="#ffffff"/>
  </symbol>
  <symbol id="c" overflow="visible" fill="#ffffff">
   <path d="m5.3594-42.516h13.953l9.6875 22.75 9.7344-22.75h13.922v42.516h-10.359v-31.094l-9.7969 22.922h-6.9531l-9.7969-22.922v31.094h-10.391z" fill="#ffffff"/>
  </symbol>
 </defs>
 <g>
  <path d="m93.332 245h23.336c6.4375 0 11.664-5.2266 11.664-11.668 0-6.4375-5.2266-11.664-11.664-11.664h-23.336c-6.4375 0-11.664 5.2266-11.664 11.664 0 6.4414 5.2266 11.668 11.664 11.668z" fill-rule="evenodd" fill="#ffffff"/>
  <path d="m112.5 150.1 20.207 11.668c5.5742 3.2188 12.715 1.3047 15.934-4.2695 3.2227-5.5781 1.3086-12.719-4.2695-15.938l-20.207-11.668c-5.5781-3.2188-12.715-1.3086-15.938 4.2695-3.2188 5.5781-1.3047 12.719 4.2734 15.938z" fill-rule="evenodd" fill="#ffffff"/>
  <path d="m176.57 77.504 11.664 20.207c3.2227 5.5742 10.359 7.4883 15.938 4.2695s7.4922-10.359 4.2695-15.938l-11.664-20.207c-3.2227-5.5781-10.359-7.4922-15.938-4.2695-5.5781 3.2188-7.4922 10.359-4.2695 15.938z" fill-rule="evenodd" fill="#ffffff"/>
  <path d="m268.33 46.668v23.332c0 6.4414 5.2266 11.668 11.668 11.668s11.668-5.2266 11.668-11.668v-23.332c0-6.4414-5.2266-11.668-11.668-11.668s-11.668 5.2266-11.668 11.668z" fill-rule="evenodd" fill="#ffffff"/>
  <path d="m363.23 65.836-11.664 20.207c-3.2227 5.5781-1.3086 12.719 4.2695 15.938 5.5781 3.2188 12.715 1.3047 15.938-4.2695l11.664-20.207c3.2227-5.5781 1.3086-12.719-4.2695-15.938-5.5781-3.2227-12.715-1.3086-15.938 4.2695z" fill-rule="evenodd" fill="#ffffff"/>
  <path d="m435.83 129.9-20.207 11.668c-5.5781 3.2188-7.4922 10.359-4.2695 15.934 3.2188 5.5781 10.359 7.4922 15.934 4.2734l20.207-11.668c5.5781-3.2188 7.4922-10.359 4.2734-15.938-3.2227-5.5781-10.359-7.4883-15.938-4.2695z" fill-rule="evenodd" fill="#ffffff"/>
  <path d="m176.8 309.59c-0.42188 1.9727-0.76953 3.957-1.0508 5.9727-52.859 5.4609-94.078 50.145-94.078 104.44 0 57.996 47.004 105 105 105h326.66c57.996 0 105-47.004 105-105 0-54.203-41.078-98.828-93.809-104.41-5.4258-63.395-57.027-113.69-120.98-117.07-15.191-53.934-64.773-93.52-123.54-93.52-70.828 0-128.33 57.504-128.33 128.33 0 28.551 9.3438 54.93 25.129 76.254zm324.87 17.082c0-57.949-47.055-105-105-105-38.887 0-72.859 21.184-91.012 52.629-1.6094 2.7969-4.3164 4.8047-7.457 5.5273-3.1484 0.73438-6.4609 0.12891-9.1328-1.668-9.2773-6.207-20.418-9.8242-32.398-9.8242-32.203 0-58.336 26.133-58.336 58.336 0 6.4375-5.2266 11.664-11.664 11.664-45.105 0-81.668 36.566-81.668 81.668s36.562 81.668 81.668 81.668h326.66c45.105 0 81.668-36.566 81.668-81.668s-36.562-81.668-81.668-81.668c-6.4375 0-11.664-5.2266-11.664-11.664zm-122.26-127.18c-14.094-41.371-53.305-71.156-99.41-71.156-57.949 0-105 47.055-105 105 0 18.027 4.5508 34.988 12.566 49.816 14.465-22.91 40.016-38.148 69.102-38.148 12.527 0 24.406 2.8242 35.012 7.875 20.102-28.535 51.531-48.523 87.73-53.387z" fill-rule="evenodd" fill="#ffffff"/>
  <use x="70" y="735" xlink:href="#b" fill="#ffffff"/>
  <use x="220.503906" y="735" xlink:href="#e" fill="#ffffff"/>
  <use x="287.953125" y="735" xlink:href="#a" fill="#ffffff"/>
  <use x="350.015625" y="735" xlink:href="#d" fill="#ffffff"/>
  <use x="450.105469" y="735" xlink:href="#c" fill="#ffffff"/>
  <use x="547.519531" y="735" xlink:href="#a" fill="#ffffff"/>
  <use x="648.945312" y="735" xlink:href="#b" fill="#ffffff"/>
 </g>
</svg>